<svg width="50" height="50" viewBox="0 0 50 50" fill="none" xmlns="http://www.w3.org/2000/svg">
<circle cx="25" cy="25" r="25" fill="#FFF3EE"/>
<path d="M38.3332 34.3333V38.3333H11.6665V34.3333C11.6665 33.6 12.2665 33 12.9998 33H36.9998C37.7332 33 38.3332 33.6 38.3332 34.3333Z" stroke="#FF783B" stroke-width="1.5" stroke-miterlimit="10" stroke-linecap="round" stroke-linejoin="round"/>
<path opacity="0.6" d="M14.8335 32.5013V24.168H19.1668V32.5013H14.8335Z" stroke="#FF783B"/>
<path opacity="0.4" d="M20.1665 32.5013V24.168H24.4998V32.5013H20.1665Z" stroke="#FF783B"/>
<path opacity="0.6" d="M25.5 32.5013V24.168H29.8333V32.5013H25.5Z" fill="#FF783B" stroke="#FF783B"/>
<path opacity="0.4" d="M35.6668 23.668H30.3335V33.0013H35.6668V23.668Z" fill="#FF783B"/>
<path d="M39.6668 39.332H10.3335C9.78683 39.332 9.3335 38.8787 9.3335 38.332C9.3335 37.7854 9.78683 37.332 10.3335 37.332H39.6668C40.2135 37.332 40.6668 37.7854 40.6668 38.332C40.6668 38.8787 40.2135 39.332 39.6668 39.332Z" fill="#FF783B"/>
<path d="M37.4932 16.6651L25.4932 11.8652C25.2265 11.7585 24.7732 11.7585 24.5065 11.8652L12.5065 16.6651C12.0398 16.8518 11.6665 17.3984 11.6665 17.9051V22.3318C11.6665 23.0651 12.2665 23.6651 12.9998 23.6651H36.9998C37.7332 23.6651 38.3332 23.0651 38.3332 22.3318V17.9051C38.3332 17.3984 37.9598 16.8518 37.4932 16.6651ZM24.9998 20.3318C23.8932 20.3318 22.9998 19.4385 22.9998 18.3318C22.9998 17.2251 23.8932 16.3318 24.9998 16.3318C26.1065 16.3318 26.9998 17.2251 26.9998 18.3318C26.9998 19.4385 26.1065 20.3318 24.9998 20.3318Z" fill="#FF783B"/>
</svg>
