<svg width="80" height="80" viewBox="0 0 80 80" fill="none" xmlns="http://www.w3.org/2000/svg">
<circle cx="40" cy="40" r="40" fill="#E9FBF6"/>
<path d="M59.1667 53.4167V59.1667H20.8334V53.4167C20.8334 52.3625 21.6959 51.5 22.75 51.5H57.25C58.3042 51.5 59.1667 52.3625 59.1667 53.4167Z" fill="#17BD8D" stroke="#17BD8D" stroke-width="1.5" stroke-miterlimit="10" stroke-linecap="round" stroke-linejoin="round"/>
<path opacity="0.6" d="M32.3333 38.082H24.6666V51.4987H32.3333V38.082Z" fill="#17BD8D"/>
<path opacity="0.4" d="M40 38.082H32.3334V51.4987H40V38.082Z" fill="#17BD8D"/>
<path opacity="0.6" d="M47.6667 38.082H40V51.4987H47.6667V38.082Z" fill="#17BD8D"/>
<path opacity="0.4" d="M55.3333 38.082H47.6666V51.4987H55.3333V38.082Z" fill="#17BD8D"/>
<path d="M61.0833 60.6055H18.9166C18.1308 60.6055 17.4791 59.9538 17.4791 59.168C17.4791 58.3821 18.1308 57.7305 18.9166 57.7305H61.0833C61.8691 57.7305 62.5208 58.3821 62.5208 59.168C62.5208 59.9538 61.8691 60.6055 61.0833 60.6055Z" fill="#17BD8D"/>
<path d="M57.9592 28.0228L40.7092 21.1228C40.3259 20.9695 39.6742 20.9695 39.2909 21.1228L22.0409 28.0228C21.3701 28.2911 20.8334 29.0769 20.8334 29.8053V36.1686C20.8334 37.2228 21.6959 38.0853 22.75 38.0853H57.25C58.3042 38.0853 59.1667 37.2228 59.1667 36.1686V29.8053C59.1667 29.0769 58.63 28.2911 57.9592 28.0228ZM40 33.2936C38.4092 33.2936 37.125 32.0094 37.125 30.4186C37.125 28.8278 38.4092 27.5436 40 27.5436C41.5909 27.5436 42.875 28.8278 42.875 30.4186C42.875 32.0094 41.5909 33.2936 40 33.2936Z" fill="#17BD8D"/>
</svg>
