<svg width="80" height="80" viewBox="0 0 80 80" fill="none" xmlns="http://www.w3.org/2000/svg">
<circle cx="40" cy="40" r="40" fill="#E9F6FF"/>
<path opacity="0.8" d="M41.725 21.829L41.6675 21.9632L36.1092 34.8624H30.6467C29.3433 34.8624 28.1167 35.1115 26.9667 35.6099L30.3208 27.5982L30.3975 27.4257L30.5125 27.119C30.57 26.9849 30.6083 26.8699 30.6658 26.774C33.1767 20.9665 36.0133 19.644 41.725 21.829Z" fill="#219FFF"/>
<path d="M49.3534 34.3615H36.8691L41.9927 22.4711C42.1174 22.5216 42.2529 22.5751 42.3915 22.622L46.6103 24.3973L46.6127 24.3983C48.9396 25.3632 50.4949 26.338 51.4332 27.4663C51.6 27.6889 51.7402 27.8827 51.8792 28.1085L51.8791 28.1086L51.8844 28.1168C52.0393 28.3578 52.1462 28.5779 52.2052 28.7995L52.2154 28.8376L52.2315 28.8737C52.3009 29.0299 52.3444 29.1496 52.3728 29.2774L52.377 29.2965L52.3827 29.3152C52.8052 30.6964 52.6011 32.4131 51.7529 34.6473C50.9817 34.4608 50.1816 34.3615 49.3534 34.3615Z" fill="#219FFF" stroke="#219FFF"/>
<path opacity="0.4" d="M58.7067 44.2166V47.9541C58.7067 48.3374 58.6875 48.7208 58.6683 49.0849C58.3042 55.7933 54.5667 59.1666 47.475 59.1666H32.525C32.0458 59.1666 31.605 59.1283 31.1642 59.0708C25.0692 58.6683 21.8108 55.41 21.3892 49.3149C21.3317 48.8549 21.2933 48.4141 21.2933 47.9541V44.2166C21.2933 40.3641 23.6317 37.0483 26.9667 35.6108C28.1167 35.1124 29.3433 34.8633 30.6467 34.8633H49.3533C50.2925 34.8633 51.1933 34.9974 52.0558 35.2466C55.8892 36.4158 58.7067 39.9808 58.7067 44.2166Z" fill="#219FFF"/>
<path opacity="0.6" d="M30.3208 27.5977L26.9667 35.6093C23.6317 37.0468 21.2933 40.3627 21.2933 44.2152V38.5993C21.2933 33.156 25.165 28.6135 30.3208 27.5977Z" fill="#219FFF"/>
<path opacity="0.6" d="M58.7067 38.6002V44.216C58.7067 39.9802 55.8892 36.4152 52.0558 35.246C53.0525 32.7735 53.3592 30.7994 52.8608 29.1702C52.8225 28.9977 52.765 28.8444 52.6883 28.6719C56.2725 30.531 58.7067 34.3069 58.7067 38.6002Z" fill="#219FFF"/>
<path d="M44.7916 45.1571H41.4375V41.918C41.4375 41.1321 40.7858 40.4805 40 40.4805C39.2141 40.4805 38.5625 41.1321 38.5625 41.918V45.1571H35.2083C34.4225 45.1571 33.7708 45.8088 33.7708 46.5946C33.7708 47.3805 34.4225 48.0321 35.2083 48.0321H38.5625V51.5013C38.5625 52.2871 39.2141 52.9388 40 52.9388C40.7858 52.9388 41.4375 52.2871 41.4375 51.5013V48.0321H44.7916C45.5775 48.0321 46.2291 47.3805 46.2291 46.5946C46.2291 45.8088 45.5775 45.1571 44.7916 45.1571Z" fill="#219FFF"/>
</svg>
