<svg width="22" height="22" viewBox="0 0 22 22" fill="none" xmlns="http://www.w3.org/2000/svg">
<path opacity="0.4" d="M7.33333 20.1667H14.6667C17.1967 20.1667 19.25 18.1134 19.25 15.5834V6.41671C19.25 3.88671 17.1967 1.83337 14.6667 1.83337H7.33333C4.80333 1.83337 2.75 3.88671 2.75 6.41671V15.5834C2.75 18.1134 4.80333 20.1667 7.33333 20.1667Z" fill="#989FC8"/>
<path d="M13.75 5.23413H8.25001C7.30584 5.23413 6.52667 6.00413 6.52667 6.95746V7.87413C6.52667 8.8183 7.29667 9.59746 8.25001 9.59746H13.75C14.6942 9.59746 15.4733 8.82746 15.4733 7.87413V6.95746C15.4733 6.00413 14.7033 5.23413 13.75 5.23413Z" fill="#989FC8"/>
<path d="M7.47997 13.6767C7.35164 13.6767 7.23247 13.6492 7.12247 13.6033C7.01247 13.5575 6.91164 13.4933 6.82914 13.4108C6.65497 13.2367 6.55414 13.0075 6.55414 12.76C6.55414 12.6408 6.58164 12.5217 6.62747 12.4117C6.6733 12.2925 6.73747 12.2008 6.82914 12.1092C7.03997 11.8983 7.36081 11.7975 7.65414 11.8617C7.70914 11.8708 7.77331 11.8892 7.82831 11.9167C7.88331 11.935 7.93831 11.9625 7.98414 11.9992C8.03914 12.0267 8.08497 12.0725 8.12164 12.1092C8.20414 12.2008 8.27747 12.2925 8.32331 12.4117C8.36914 12.5217 8.38747 12.6408 8.38747 12.76C8.38747 13.0075 8.29581 13.2367 8.12164 13.4108C7.94747 13.585 7.7183 13.6767 7.47997 13.6767Z" fill="#989FC8"/>
<path d="M11.1375 13.6766C10.8992 13.6766 10.67 13.5849 10.4958 13.4108C10.3217 13.2366 10.2208 13.0074 10.2208 12.7599C10.2208 12.5216 10.3217 12.2833 10.4958 12.1091C10.835 11.7699 11.4492 11.7699 11.7883 12.1091C11.8708 12.2008 11.9442 12.2924 11.99 12.4116C12.0358 12.5216 12.0542 12.6408 12.0542 12.7599C12.0542 13.0074 11.9625 13.2366 11.7883 13.4108C11.6142 13.5849 11.385 13.6766 11.1375 13.6766Z" fill="#989FC8"/>
<path d="M14.8042 13.6766C14.5658 13.6766 14.3367 13.5849 14.1625 13.4108C13.9883 13.2366 13.8875 13.0074 13.8875 12.7599C13.8875 12.5216 13.9883 12.2833 14.1625 12.1091C14.5017 11.7699 15.1158 11.7699 15.455 12.1091C15.6292 12.2833 15.73 12.5216 15.73 12.7599C15.73 12.8791 15.7025 12.9983 15.6567 13.1083C15.6108 13.2183 15.5467 13.3191 15.455 13.4108C15.2808 13.5849 15.0517 13.6766 14.8042 13.6766Z" fill="#989FC8"/>
<path d="M7.47997 17.3433C7.23247 17.3433 7.0033 17.2516 6.82914 17.0774C6.65497 16.9033 6.55414 16.6741 6.55414 16.4266C6.55414 16.1883 6.65497 15.9499 6.82914 15.7758C6.91164 15.6933 7.01247 15.6291 7.12247 15.5833C7.35164 15.4916 7.59914 15.4916 7.82831 15.5833C7.88331 15.6016 7.93831 15.6291 7.98414 15.6658C8.03914 15.6933 8.08497 15.7391 8.12164 15.7758C8.2958 15.9499 8.39664 16.1883 8.39664 16.4266C8.39664 16.6741 8.2958 16.9033 8.12164 17.0774C7.94747 17.2516 7.7183 17.3433 7.47997 17.3433Z" fill="#989FC8"/>
<path d="M11.1375 17.3434C10.8992 17.3434 10.67 17.2517 10.4958 17.0775C10.3217 16.9034 10.2208 16.6742 10.2208 16.4267C10.2208 16.3625 10.23 16.3075 10.2392 16.2434C10.2575 16.1884 10.2758 16.1334 10.2942 16.0784C10.3217 16.0234 10.3492 15.9684 10.3767 15.9134C10.4133 15.8675 10.45 15.8217 10.4958 15.7759C10.5783 15.6934 10.6792 15.6292 10.7892 15.5834C11.1283 15.4459 11.5317 15.5192 11.7883 15.7759C11.9625 15.95 12.0542 16.1884 12.0542 16.4267C12.0542 16.6742 11.9625 16.9034 11.7883 17.0775C11.7058 17.16 11.605 17.2242 11.495 17.27C11.385 17.3159 11.2658 17.3434 11.1375 17.3434Z" fill="#989FC8"/>
<path d="M14.8042 17.3434C14.685 17.3434 14.5658 17.3159 14.4558 17.27C14.3458 17.2242 14.245 17.16 14.1625 17.0775C13.9883 16.9034 13.8967 16.6742 13.8967 16.4267C13.8967 16.1884 13.9883 15.95 14.1625 15.7759C14.41 15.5192 14.8225 15.4459 15.1617 15.5834C15.2717 15.6292 15.3725 15.6934 15.455 15.7759C15.6292 15.95 15.7208 16.1884 15.7208 16.4267C15.7208 16.6742 15.6292 16.9034 15.455 17.0775C15.2808 17.2517 15.0517 17.3434 14.8042 17.3434Z" fill="#989FC8"/>
</svg>
