<svg width="80" height="80" viewBox="0 0 80 80" fill="none" xmlns="http://www.w3.org/2000/svg">
<circle cx="40" cy="40" r="40" fill="#FFF7EB"/>
<path opacity="0.4" d="M53.9152 55.7675L53.9221 55.7528C54.5629 54.3821 54.8333 52.4061 54.8333 49.5054V30.492C54.8333 27.6127 54.5669 25.6445 53.9362 24.275C53.6021 23.8544 53.189 23.6512 52.7075 23.6512C51.9014 23.6512 50.799 24.197 49.5083 25.5812C47.724 27.4961 44.9428 27.3413 43.3764 25.2537L43.3765 25.2538L43.7758 24.9529L43.3758 25.2529L53.9152 55.7675ZM53.9152 55.7675C53.5911 56.1618 53.1885 56.3462 52.7075 56.3462C51.9013 56.3462 50.799 55.8003 49.5082 54.416M53.9152 55.7675L49.5082 54.416M49.5082 54.416C47.7239 52.5013 44.9427 52.6561 43.3763 54.7438C43.3761 54.7441 43.376 54.7443 43.3758 54.7445L41.4407 57.3119L41.4383 57.3153C40.7519 58.2419 39.8769 58.6654 39.0417 58.6654C38.2064 58.6654 37.3314 58.2419 36.6451 57.3152L36.6422 57.3115L34.6889 54.726C34.6885 54.7256 34.6882 54.7251 34.6879 54.7247C33.1409 52.6563 30.3841 52.504 28.6014 54.3894L28.5874 54.4033L28.5813 54.4094L28.5754 54.4158C27.524 55.5415 26.5867 56.1271 25.8368 56.2989C25.1461 56.4572 24.5953 56.2736 24.1671 55.7652L24.1613 55.7528C23.5204 54.3821 23.25 52.4061 23.25 49.5054V30.492C23.25 27.6126 23.5165 25.6443 24.1472 24.2749L49.5082 54.416ZM34.6889 25.2714L34.2884 24.972L34.6873 25.2734L34.6881 25.2724C34.6883 25.2721 34.6886 25.2717 34.6889 25.2714ZM28.6014 25.6081L28.6066 25.6133L28.96 25.2595L28.5961 25.6025C28.5979 25.6044 28.5997 25.6062 28.6014 25.6081ZM53.875 24.0329V24.0461C53.8743 24.0318 53.875 24.0261 53.875 24.0329Z" fill="#FFA114" stroke="#FFA114"/>
<path d="M47.6667 38.082H32.3334C31.5475 38.082 30.8959 37.4304 30.8959 36.6445C30.8959 35.8587 31.5475 35.207 32.3334 35.207H47.6667C48.4525 35.207 49.1042 35.8587 49.1042 36.6445C49.1042 37.4304 48.4525 38.082 47.6667 38.082Z" fill="#FFA114"/>
<path d="M43.8334 44.793H32.3334C31.5475 44.793 30.8959 44.1413 30.8959 43.3555C30.8959 42.5696 31.5475 41.918 32.3334 41.918H43.8334C44.6192 41.918 45.2709 42.5696 45.2709 43.3555C45.2709 44.1413 44.6192 44.793 43.8334 44.793Z" fill="#FFA114"/>
</svg>
