<svg width="22" height="22" viewBox="0 0 22 22" fill="none" xmlns="http://www.w3.org/2000/svg">
<path opacity="0.4" d="M7.33333 20.1654H14.6667C17.1967 20.1654 19.25 18.112 19.25 15.582V6.41536C19.25 3.88536 17.1967 1.83203 14.6667 1.83203H7.33333C4.80333 1.83203 2.75 3.88536 2.75 6.41536V15.582C2.75 18.112 4.80333 20.1654 7.33333 20.1654Z" fill="#989FC8"/>
<path d="M13.75 5.23438H8.25001C7.30584 5.23438 6.52667 6.00438 6.52667 6.95771V7.87438C6.52667 8.81854 7.29667 9.59771 8.25001 9.59771H13.75C14.6942 9.59771 15.4733 8.82771 15.4733 7.87438V6.95771C15.4733 6.00438 14.7033 5.23438 13.75 5.23438Z" fill="#989FC8"/>
<path d="M7.47997 13.6779C7.35164 13.6779 7.23247 13.6504 7.12247 13.6046C7.01247 13.5587 6.91164 13.4946 6.82914 13.4121C6.65497 13.2379 6.55414 13.0087 6.55414 12.7612C6.55414 12.6421 6.58164 12.5229 6.62747 12.4129C6.6733 12.2937 6.73747 12.2021 6.82914 12.1104C7.03997 11.8996 7.36081 11.7987 7.65414 11.8629C7.70914 11.8721 7.77331 11.8904 7.82831 11.9179C7.88331 11.9362 7.93831 11.9637 7.98414 12.0004C8.03914 12.0279 8.08497 12.0737 8.12164 12.1104C8.20414 12.2021 8.27747 12.2937 8.32331 12.4129C8.36914 12.5229 8.38747 12.6421 8.38747 12.7612C8.38747 13.0087 8.29581 13.2379 8.12164 13.4121C7.94747 13.5862 7.7183 13.6779 7.47997 13.6779Z" fill="#989FC8"/>
<path d="M11.1375 13.6773C10.8992 13.6773 10.67 13.5857 10.4958 13.4115C10.3217 13.2373 10.2208 13.0082 10.2208 12.7607C10.2208 12.5223 10.3217 12.284 10.4958 12.1098C10.835 11.7707 11.4492 11.7707 11.7883 12.1098C11.8708 12.2015 11.9442 12.2932 11.99 12.4123C12.0358 12.5223 12.0542 12.6415 12.0542 12.7607C12.0542 13.0082 11.9625 13.2373 11.7883 13.4115C11.6142 13.5857 11.385 13.6773 11.1375 13.6773Z" fill="#989FC8"/>
<path d="M14.8042 13.6773C14.5658 13.6773 14.3367 13.5857 14.1625 13.4115C13.9883 13.2373 13.8875 13.0082 13.8875 12.7607C13.8875 12.5223 13.9883 12.284 14.1625 12.1098C14.5017 11.7707 15.1158 11.7707 15.455 12.1098C15.6292 12.284 15.73 12.5223 15.73 12.7607C15.73 12.8798 15.7025 12.999 15.6567 13.109C15.6108 13.219 15.5467 13.3198 15.455 13.4115C15.2808 13.5857 15.0517 13.6773 14.8042 13.6773Z" fill="#989FC8"/>
<path d="M7.47997 17.3444C7.23247 17.3444 7.0033 17.2527 6.82914 17.0785C6.65497 16.9044 6.55414 16.6752 6.55414 16.4277C6.55414 16.1894 6.65497 15.951 6.82914 15.7769C6.91164 15.6944 7.01247 15.6302 7.12247 15.5844C7.35164 15.4927 7.59914 15.4927 7.82831 15.5844C7.88331 15.6027 7.93831 15.6302 7.98414 15.6669C8.03914 15.6944 8.08497 15.7402 8.12164 15.7769C8.2958 15.951 8.39664 16.1894 8.39664 16.4277C8.39664 16.6752 8.2958 16.9044 8.12164 17.0785C7.94747 17.2527 7.7183 17.3444 7.47997 17.3444Z" fill="#989FC8"/>
<path d="M11.1375 17.3439C10.8992 17.3439 10.67 17.2522 10.4958 17.078C10.3217 16.9039 10.2208 16.6747 10.2208 16.4272C10.2208 16.363 10.23 16.308 10.2392 16.2439C10.2575 16.1889 10.2758 16.1339 10.2942 16.0789C10.3217 16.0239 10.3492 15.9689 10.3767 15.9139C10.4133 15.868 10.45 15.8222 10.4958 15.7764C10.5783 15.6939 10.6792 15.6297 10.7892 15.5839C11.1283 15.4464 11.5317 15.5197 11.7883 15.7764C11.9625 15.9505 12.0542 16.1889 12.0542 16.4272C12.0542 16.6747 11.9625 16.9039 11.7883 17.078C11.7058 17.1605 11.605 17.2247 11.495 17.2705C11.385 17.3164 11.2658 17.3439 11.1375 17.3439Z" fill="#989FC8"/>
<path d="M14.8042 17.3439C14.685 17.3439 14.5658 17.3164 14.4558 17.2705C14.3458 17.2247 14.245 17.1605 14.1625 17.078C13.9883 16.9039 13.8967 16.6747 13.8967 16.4272C13.8967 16.1889 13.9883 15.9505 14.1625 15.7764C14.41 15.5197 14.8225 15.4464 15.1617 15.5839C15.2717 15.6297 15.3725 15.6939 15.455 15.7764C15.6292 15.9505 15.7208 16.1889 15.7208 16.4272C15.7208 16.6747 15.6292 16.9039 15.455 17.078C15.2808 17.2522 15.0517 17.3439 14.8042 17.3439Z" fill="#989FC8"/>
</svg>
