<svg width="45" height="45" viewBox="0 0 45 45" fill="none" xmlns="http://www.w3.org/2000/svg">
<circle cx="22.9675" cy="22.5" r="22" fill="#FFF3EE"/>
<path opacity="0.4" d="M28.4475 21.05C28.0275 21.46 27.7875 22.05 27.8475 22.68C27.9375 23.76 28.9275 24.55 30.0075 24.55H31.9675V26C31.9675 29 29.9675 31 26.9675 31H17.9675C14.9675 31 12.9675 29 12.9675 26V19C12.9675 16.28 14.6075 14.38 17.1575 14.06C17.4175 14.02 17.6875 14 17.9675 14H26.9675C27.2275 14 27.4775 14.01 27.7175 14.05C30.2975 14.35 31.9675 16.26 31.9675 19V20.45H29.8875C29.3275 20.45 28.8175 20.67 28.4475 21.05Z" fill="#FF783B"/>
<path d="M32.9675 21.4699V23.53C32.9675 24.08 32.5275 24.5299 31.9675 24.5499H30.0075C28.9275 24.5499 27.9375 23.7599 27.8475 22.6799C27.7875 22.0499 28.0275 21.4599 28.4475 21.0499C28.8175 20.6699 29.3275 20.45 29.8875 20.45H31.9675C32.5275 20.47 32.9675 20.9199 32.9675 21.4699Z" fill="#FF783B"/>
</svg>
