<svg width="45" height="45" viewBox="0 0 45 45" fill="none" xmlns="http://www.w3.org/2000/svg">
<circle cx="22.967" cy="22.5" r="22" fill="#E9F6FF"/>
<path opacity="0.4" d="M28.447 21.05C28.027 21.46 27.787 22.05 27.847 22.68C27.937 23.76 28.927 24.55 30.007 24.55H31.967V26C31.967 29 29.967 31 26.967 31H17.967C14.967 31 12.967 29 12.967 26V19C12.967 16.28 14.607 14.38 17.157 14.06C17.417 14.02 17.687 14 17.967 14H26.967C27.227 14 27.477 14.01 27.717 14.05C30.297 14.35 31.967 16.26 31.967 19V20.45H29.887C29.327 20.45 28.817 20.67 28.447 21.05Z" fill="#219FFF"/>
<path d="M32.967 21.4699V23.53C32.967 24.08 32.527 24.5299 31.967 24.5499H30.007C28.927 24.5499 27.937 23.7599 27.847 22.6799C27.787 22.0499 28.027 21.4599 28.447 21.0499C28.817 20.6699 29.327 20.45 29.887 20.45H31.967C32.527 20.47 32.967 20.9199 32.967 21.4699Z" fill="#219FFF"/>
</svg>
