<svg width="18" height="18" viewBox="0 0 18 18" fill="none" xmlns="http://www.w3.org/2000/svg">
<path d="M12.0624 2.67V3.12584L12.5163 3.16787C13.4356 3.25299 14.0639 3.56259 14.4803 4.00471C14.875 4.4237 15.1225 5.00745 15.2075 5.755H2.79239C2.87735 5.00745 3.12483 4.4237 3.51951 4.00471C3.93598 3.56259 4.56425 3.25299 5.48353 3.16787L5.93743 3.12584V2.67V1.5C5.93743 1.48694 5.94263 1.47128 5.95692 1.45699C5.97121 1.4427 5.98686 1.4375 5.99993 1.4375C6.01299 1.4375 6.02865 1.4427 6.04294 1.45699C6.05723 1.47128 6.06243 1.48694 6.06243 1.5V2.625V3.125H6.56243H11.4374H11.9374V2.625V1.5C11.9374 1.48694 11.9426 1.47128 11.9569 1.45699C11.9712 1.4427 11.9869 1.4375 11.9999 1.4375C12.013 1.4375 12.0286 1.4427 12.0429 1.45699C12.0572 1.47128 12.0624 1.48694 12.0624 1.5V2.67Z" fill="#676B83" stroke="#676B83"/>
<path opacity="0.4" d="M15 7.38086C15.4125 7.38086 15.75 7.71836 15.75 8.13086V12.7509C15.75 15.0009 14.625 16.5009 12 16.5009H6C3.375 16.5009 2.25 15.0009 2.25 12.7509V8.13086C2.25 7.71836 2.5875 7.38086 3 7.38086H15Z" fill="#676B83"/>
<path d="M6.375 11.2492C6.18 11.2492 5.985 11.1667 5.8425 11.0317C5.7075 10.8892 5.625 10.6942 5.625 10.4992C5.625 10.3042 5.7075 10.1092 5.8425 9.96668C6.0525 9.75668 6.3825 9.68916 6.66 9.80916C6.7575 9.84666 6.84 9.89918 6.9075 9.96668C7.0425 10.1092 7.125 10.3042 7.125 10.4992C7.125 10.6942 7.0425 10.8892 6.9075 11.0317C6.765 11.1667 6.57 11.2492 6.375 11.2492Z" fill="#676B83"/>
<path d="M9 11.2492C8.805 11.2492 8.61 11.1667 8.4675 11.0317C8.3325 10.8892 8.25 10.6942 8.25 10.4992C8.25 10.3042 8.3325 10.1092 8.4675 9.96668C8.535 9.89918 8.6175 9.84666 8.715 9.80916C8.9925 9.68916 9.3225 9.75668 9.5325 9.96668C9.6675 10.1092 9.75 10.3042 9.75 10.4992C9.75 10.6942 9.6675 10.8892 9.5325 11.0317C9.495 11.0617 9.4575 11.0917 9.42 11.1217C9.375 11.1517 9.33 11.1742 9.285 11.1892C9.24 11.2117 9.195 11.2267 9.15 11.2342C9.0975 11.2417 9.0525 11.2492 9 11.2492Z" fill="#676B83"/>
<path d="M11.625 11.25C11.43 11.25 11.235 11.1675 11.0925 11.0325C10.9575 10.89 10.875 10.695 10.875 10.5C10.875 10.305 10.9575 10.11 11.0925 9.96752C11.1675 9.90002 11.2425 9.8475 11.34 9.81C11.475 9.75 11.625 9.735 11.775 9.765C11.82 9.7725 11.865 9.7875 11.91 9.81C11.955 9.825 12 9.84752 12.045 9.87752C12.0825 9.90752 12.12 9.93752 12.1575 9.96752C12.2925 10.11 12.375 10.305 12.375 10.5C12.375 10.695 12.2925 10.89 12.1575 11.0325C12.12 11.0625 12.0825 11.0925 12.045 11.1225C12 11.1525 11.955 11.175 11.91 11.19C11.865 11.2125 11.82 11.2275 11.775 11.235C11.7225 11.2425 11.67 11.25 11.625 11.25Z" fill="#676B83"/>
<path d="M6.375 13.875C6.2775 13.875 6.18 13.8525 6.09 13.815C5.9925 13.7775 5.9175 13.725 5.8425 13.6575C5.7075 13.515 5.625 13.32 5.625 13.125C5.625 12.93 5.7075 12.735 5.8425 12.5925C5.9175 12.525 5.9925 12.4725 6.09 12.435C6.225 12.375 6.375 12.36 6.525 12.39C6.57 12.3975 6.615 12.4125 6.66 12.435C6.705 12.45 6.75 12.4725 6.795 12.5025C6.8325 12.5325 6.87 12.5625 6.9075 12.5925C7.0425 12.735 7.125 12.93 7.125 13.125C7.125 13.32 7.0425 13.515 6.9075 13.6575C6.87 13.6875 6.8325 13.725 6.795 13.7475C6.75 13.7775 6.705 13.8 6.66 13.815C6.615 13.8375 6.57 13.8525 6.525 13.86C6.4725 13.8675 6.4275 13.875 6.375 13.875Z" fill="#676B83"/>
<path d="M9 13.8754C8.805 13.8754 8.61 13.7929 8.4675 13.6579C8.3325 13.5154 8.25 13.3204 8.25 13.1254C8.25 12.9304 8.3325 12.7354 8.4675 12.5929C8.745 12.3154 9.255 12.3154 9.5325 12.5929C9.6675 12.7354 9.75 12.9304 9.75 13.1254C9.75 13.3204 9.6675 13.5154 9.5325 13.6579C9.39 13.7929 9.195 13.8754 9 13.8754Z" fill="#676B83"/>
<path d="M11.625 13.8754C11.43 13.8754 11.235 13.7929 11.0925 13.6579C10.9575 13.5154 10.875 13.3204 10.875 13.1254C10.875 12.9304 10.9575 12.7354 11.0925 12.5929C11.37 12.3154 11.88 12.3154 12.1575 12.5929C12.2925 12.7354 12.375 12.9304 12.375 13.1254C12.375 13.3204 12.2925 13.5154 12.1575 13.6579C12.015 13.7929 11.82 13.8754 11.625 13.8754Z" fill="#676B83"/>
</svg>
