<svg width="16" height="16" viewBox="0 0 16 16" fill="none" xmlns="http://www.w3.org/2000/svg">
<path d="M14.6466 12.2207C14.6466 12.4607 14.5933 12.7073 14.4799 12.9473C14.3666 13.1873 14.2199 13.414 14.0266 13.6273C13.6999 13.9873 13.3399 14.2473 12.9333 14.414C12.5333 14.5807 12.0999 14.6673 11.6333 14.6673C10.9533 14.6673 10.2266 14.5073 9.45992 14.1807C8.69325 13.854 7.92659 13.414 7.16659 12.8607C6.39992 12.3007 5.67325 11.6807 4.97992 10.994C4.29325 10.3007 3.67325 9.57398 3.11992 8.81398C2.57325 8.05398 2.13325 7.29398 1.81325 6.54065C1.49325 5.78065 1.33325 5.05398 1.33325 4.36065C1.33325 3.90732 1.41325 3.47398 1.57325 3.07398C1.73325 2.66732 1.98659 2.29398 2.33992 1.96065C2.76659 1.54065 3.23325 1.33398 3.72659 1.33398C3.91325 1.33398 4.09992 1.37398 4.26659 1.45398C4.43992 1.53398 4.59325 1.65398 4.71325 1.82732L6.25992 4.00732C6.37992 4.17398 6.46659 4.32732 6.52659 4.47398C6.58659 4.61398 6.61992 4.75398 6.61992 4.88065C6.61992 5.04065 6.57325 5.20065 6.47992 5.35398C6.39325 5.50732 6.26659 5.66732 6.10659 5.82732L5.59992 6.35398C5.52659 6.42732 5.49325 6.51398 5.49325 6.62065C5.49325 6.67398 5.49992 6.72065 5.51325 6.77398C5.53325 6.82732 5.55325 6.86732 5.56659 6.90732C5.68659 7.12732 5.89325 7.41398 6.18659 7.76065C6.48659 8.10732 6.80659 8.46065 7.15325 8.81398C7.51325 9.16732 7.85992 9.49398 8.21325 9.79398C8.55992 10.0873 8.84659 10.2873 9.07325 10.4073C9.10659 10.4207 9.14659 10.4407 9.19325 10.4607C9.24659 10.4807 9.29992 10.4873 9.35992 10.4873C9.47325 10.4873 9.55992 10.4473 9.63325 10.374L10.1399 9.87398C10.3066 9.70732 10.4666 9.58065 10.6199 9.50065C10.7733 9.40732 10.9266 9.36065 11.0933 9.36065C11.2199 9.36065 11.3533 9.38732 11.4999 9.44732C11.6466 9.50732 11.7999 9.59398 11.9666 9.70732L14.1733 11.274C14.3466 11.394 14.4666 11.534 14.5399 11.7007C14.6066 11.8673 14.6466 12.034 14.6466 12.2207Z" stroke="#FF783B" stroke-width="1.2" stroke-miterlimit="10"/>
</svg>
