<svg width="46" height="46" viewBox="0 0 46 46" fill="none" xmlns="http://www.w3.org/2000/svg">
<circle cx="23" cy="23" r="23" fill="#FFF3EE"/>
<path d="M33 30V33H13V30C13 29.45 13.45 29 14 29H32C32.55 29 33 29.45 33 30Z" fill="#FF783B" stroke="#FF783B" stroke-width="1.5" stroke-miterlimit="10" stroke-linecap="round" stroke-linejoin="round"/>
<path opacity="0.6" d="M15.5 28.5V22.5H18.5V28.5H15.5Z" fill="#FF783B" stroke="#FF783B"/>
<path opacity="0.4" d="M19.5 28.5V22.5H22.5V28.5H19.5Z" fill="#FF783B" stroke="#FF783B"/>
<path opacity="0.6" d="M23.5 28.5V22.5H26.5V28.5H23.5Z" fill="#FF783B" stroke="#FF783B"/>
<path opacity="0.4" d="M27.5 28.5V22.5H30.5V28.5H27.5Z" fill="#FF783B" stroke="#FF783B"/>
<path d="M34 33.25H12C11.8661 33.25 11.75 33.1339 11.75 33C11.75 32.8661 11.8661 32.75 12 32.75H34C34.1339 32.75 34.25 32.8661 34.25 33C34.25 33.1339 34.1339 33.25 34 33.25Z" fill="#FF783B" stroke="#FF783B"/>
<path d="M23.1843 13.6141L32.1843 17.2141C32.2504 17.2405 32.3341 17.3048 32.4026 17.4057C32.4711 17.5066 32.5 17.608 32.5 17.6798V20.9998C32.5 21.2737 32.2739 21.4998 32 21.4998H14C13.7261 21.4998 13.5 21.2737 13.5 20.9998V17.6798C13.5 17.608 13.5289 17.5066 13.5974 17.4057C13.6659 17.3048 13.7496 17.2405 13.8157 17.2141L22.8157 13.6141C22.8376 13.6053 22.9042 13.5898 23 13.5898C23.0958 13.5898 23.1624 13.6053 23.1843 13.6141ZM21 17.9998C21 19.106 21.8939 19.9998 23 19.9998C24.1061 19.9998 25 19.106 25 17.9998C25 16.8937 24.1061 15.9998 23 15.9998C21.8939 15.9998 21 16.8937 21 17.9998Z" fill="#FF783B" stroke="#FF783B"/>
</svg>
