<svg width="46" height="46" viewBox="0 0 46 46" fill="none" xmlns="http://www.w3.org/2000/svg">
<circle cx="23" cy="23" r="23" fill="#FFF3EE"/>
<path d="M28.3783 23.1377L28.3783 23.1377L28.3778 23.1318C28.3328 22.66 28.5119 22.2168 28.8293 21.907L28.8294 21.9071L28.8382 21.898C29.1135 21.6154 29.494 21.4492 29.92 21.4492H31.9897C32.2839 21.4635 32.5 21.6977 32.5 21.9692V24.0292C32.5 24.3007 32.2839 24.5349 31.9897 24.5492H30.04C29.1806 24.5492 28.4436 23.921 28.3783 23.1377Z" fill="#FF783B" stroke="#FF783B"/>
<path opacity="0.4" d="M31.5 25.55V26.5C31.5 27.8864 31.0401 29.0028 30.2714 29.7714C29.5028 30.5401 28.3864 31 27 31H18C16.6136 31 15.4972 30.5401 14.7286 29.7714C13.9599 29.0028 13.5 27.8864 13.5 26.5V19.5C13.5 18.2419 13.878 17.2067 14.5193 16.4543C15.1596 15.7031 16.089 15.2021 17.2523 15.0561L17.2523 15.0563L17.266 15.0542C17.4993 15.0183 17.7438 15 18 15H27C27.2497 15 27.4679 15.0099 27.6678 15.0432L27.68 15.0452L27.6922 15.0466C28.8701 15.1836 29.8136 15.683 30.464 16.4367C31.1153 17.1914 31.5 18.2331 31.5 19.5V20.45H29.92C29.2282 20.45 28.5906 20.7221 28.1262 21.1966C27.607 21.706 27.3082 22.4396 27.382 23.2244C27.4982 24.5995 28.7403 25.55 30.04 25.55H31.5Z" fill="#FF783B" stroke="#FF783B"/>
<path d="M24 20.25H18C17.8661 20.25 17.75 20.1339 17.75 20C17.75 19.8661 17.8661 19.75 18 19.75H24C24.1339 19.75 24.25 19.8661 24.25 20C24.25 20.1339 24.1339 20.25 24 20.25Z" fill="#FF783B" stroke="#FF783B"/>
</svg>
