<svg width="18" height="18" viewBox="0 0 18 18" fill="none" xmlns="http://www.w3.org/2000/svg">
<path opacity="0.4" d="M16 9C16 12.866 12.866 16 9 16C5.13401 16 2 12.866 2 9C2 5.13401 5.13401 2 9 2C12.866 2 16 5.13401 16 9Z" fill="#676B83" stroke="#676B83"/>
<path d="M11.7825 11.4478C11.7773 11.4478 11.7739 11.4475 11.7718 11.4473L11.7644 11.4424L11.7537 11.436L9.42891 10.0486C9.00282 9.79403 8.66748 9.19974 8.66748 8.70781V5.63281C8.66748 5.61975 8.67268 5.60409 8.68697 5.5898C8.70126 5.57551 8.71692 5.57031 8.72998 5.57031C8.74304 5.57031 8.7587 5.57551 8.77299 5.5898C8.78728 5.60409 8.79248 5.61975 8.79248 5.63281V8.70781C8.79248 8.96117 8.89026 9.21495 8.99942 9.40688C9.10773 9.59731 9.27566 9.81201 9.49589 9.94095L11.8188 11.3272L11.8187 11.3272L11.823 11.3297C11.8363 11.3374 11.8439 11.3479 11.8475 11.3624C11.851 11.3763 11.8503 11.3937 11.8415 11.412C11.8207 11.4408 11.7958 11.4478 11.7825 11.4478Z" fill="#676B83" stroke="#676B83"/>
</svg>
