<svg width="22" height="22" viewBox="0 0 22 22" fill="none" xmlns="http://www.w3.org/2000/svg">
<path opacity="0.4" d="M1.83331 11.8067V10.1933C1.83331 9.23998 2.61248 8.45165 3.57498 8.45165C5.23415 8.45165 5.91248 7.27832 5.07831 5.83915C4.60165 5.01415 4.88581 3.94165 5.71998 3.46498L7.30581 2.55748C8.02998 2.12665 8.96498 2.38332 9.39581 3.10748L9.49664 3.28165C10.3216 4.72082 11.6783 4.72082 12.5125 3.28165L12.6133 3.10748C13.0441 2.38332 13.9791 2.12665 14.7033 2.55748L16.2891 3.46498C17.1233 3.94165 17.4075 5.01415 16.9308 5.83915C16.0966 7.27832 16.775 8.45165 18.4341 8.45165C19.3875 8.45165 20.1758 9.23082 20.1758 10.1933V11.8067C20.1758 12.76 19.3966 13.5483 18.4341 13.5483C16.775 13.5483 16.0966 14.7216 16.9308 16.1608C17.4075 16.995 17.1233 18.0583 16.2891 18.535L14.7033 19.4425C13.9791 19.8733 13.0441 19.6167 12.6133 18.8925L12.5125 18.7183C11.6875 17.2792 10.3308 17.2792 9.49664 18.7183L9.39581 18.8925C8.96498 19.6167 8.02998 19.8733 7.30581 19.4425L5.71998 18.535C4.88581 18.0583 4.60165 16.9858 5.07831 16.1608C5.91248 14.7216 5.23415 13.5483 3.57498 13.5483C2.61248 13.5483 1.83331 12.76 1.83331 11.8067Z" fill="#989FC8"/>
<path d="M11 13.9792C12.6453 13.9792 13.9791 12.6454 13.9791 11C13.9791 9.35469 12.6453 8.02087 11 8.02087C9.35463 8.02087 8.02081 9.35469 8.02081 11C8.02081 12.6454 9.35463 13.9792 11 13.9792Z" fill="#989FC8"/>
</svg>
