<svg width="22" height="22" viewBox="0 0 22 22" fill="none" xmlns="http://www.w3.org/2000/svg">
<path opacity="0.4" d="M10.0833 6.87467V15.1247C10.0833 15.6288 9.67082 16.0413 9.16665 16.0413H6.87498C5.48165 16.0413 4.22582 15.473 3.30915 14.5655C2.44748 13.6947 1.88832 12.5122 1.83332 11.2013C1.72332 8.32301 4.23498 5.95801 7.12248 5.95801H9.16665C9.67082 5.95801 10.0833 6.37051 10.0833 6.87467Z" fill="#989FC8"/>
<path opacity="0.4" d="M20.1667 10.798C20.2858 13.6855 17.7742 16.0413 14.8867 16.0413H12.8425C12.3383 16.0413 11.9258 15.6288 11.9258 15.1247V6.87467C11.9258 6.37051 12.3383 5.95801 12.8425 5.95801H15.1342C16.5275 5.95801 17.7833 6.52634 18.7 7.43384C19.5525 8.30467 20.1117 9.48717 20.1667 10.798Z" fill="#989FC8"/>
<path d="M14.6666 11.6875H7.33331C6.95748 11.6875 6.64581 11.3758 6.64581 11C6.64581 10.6242 6.95748 10.3125 7.33331 10.3125H14.6666C15.0425 10.3125 15.3541 10.6242 15.3541 11C15.3541 11.3758 15.0425 11.6875 14.6666 11.6875Z" fill="#989FC8"/>
</svg>
