<svg width="20" height="20" viewBox="0 0 20 20" fill="none" xmlns="http://www.w3.org/2000/svg">
<path d="M5.83464 9.99935C5.83464 11.1499 4.9019 12.0827 3.7513 12.0827C2.60071 12.0827 1.66797 11.1499 1.66797 9.99935C1.66797 8.84876 2.60071 7.91602 3.7513 7.91602C4.9019 7.91602 5.83464 8.84876 5.83464 9.99935Z" fill="#9B95A9"/>
<path d="M12.0846 9.99935C12.0846 11.1499 11.1519 12.0827 10.0013 12.0827C8.85071 12.0827 7.91797 11.1499 7.91797 9.99935C7.91797 8.84876 8.85071 7.91602 10.0013 7.91602C11.1519 7.91602 12.0846 8.84876 12.0846 9.99935Z" fill="#9B95A9"/>
<path d="M18.3346 9.99935C18.3346 11.1499 17.4019 12.0827 16.2513 12.0827C15.1007 12.0827 14.168 11.1499 14.168 9.99935C14.168 8.84876 15.1007 7.91602 16.2513 7.91602C17.4019 7.91602 18.3346 8.84876 18.3346 9.99935Z" fill="#9B95A9"/>
</svg>
