<svg width="22" height="22" viewBox="0 0 22 22" fill="none" xmlns="http://www.w3.org/2000/svg">
<path d="M20.1666 20.166H1.83331C1.45748 20.166 1.14581 19.8543 1.14581 19.4785C1.14581 19.1027 1.45748 18.791 1.83331 18.791H20.1666C20.5425 18.791 20.8541 19.1027 20.8541 19.4785C20.8541 19.8543 20.5425 20.166 20.1666 20.166Z" fill="#989FC8"/>
<path d="M8.9375 3.66732V20.1673H13.0625V3.66732C13.0625 2.65898 12.65 1.83398 11.4125 1.83398H10.5875C9.35 1.83398 8.9375 2.65898 8.9375 3.66732Z" fill="#989FC8"/>
<path opacity="0.4" d="M2.75 9.16732V20.1673H6.41667V9.16732C6.41667 8.15898 6.05 7.33398 4.95 7.33398H4.21667C3.11667 7.33398 2.75 8.15898 2.75 9.16732Z" fill="#989FC8"/>
<path opacity="0.4" d="M15.5833 13.7493V20.166H19.25V13.7493C19.25 12.741 18.8833 11.916 17.7833 11.916H17.05C15.95 11.916 15.5833 12.741 15.5833 13.7493Z" fill="#989FC8"/>
</svg>
