<svg width="16" height="16" viewBox="0 0 16 16" fill="none" xmlns="http://www.w3.org/2000/svg">
<path d="M13.1933 9.95484C11.8199 11.3215 9.85327 11.7415 8.1266 11.2015L4.9866 14.3348C4.75993 14.5682 4.31327 14.7082 3.99327 14.6615L2.53993 14.4615C2.05993 14.3948 1.61327 13.9415 1.53993 13.4615L1.33993 12.0082C1.29327 11.6882 1.4466 11.2415 1.6666 11.0148L4.79993 7.88151C4.2666 6.14818 4.67993 4.18151 6.05327 2.81484C8.01994 0.848177 11.2133 0.848177 13.1866 2.81484C15.1599 4.78151 15.1599 7.98818 13.1933 9.95484Z" stroke="#676B83" stroke-width="1.5" stroke-miterlimit="10" stroke-linecap="round" stroke-linejoin="round"/>
<path d="M4.59326 11.6602L6.1266 13.1935" stroke="#676B83" stroke-width="1.5" stroke-miterlimit="10" stroke-linecap="round" stroke-linejoin="round"/>
<path d="M9.6665 7.33203C10.2188 7.33203 10.6665 6.88432 10.6665 6.33203C10.6665 5.77975 10.2188 5.33203 9.6665 5.33203C9.11422 5.33203 8.6665 5.77975 8.6665 6.33203C8.6665 6.88432 9.11422 7.33203 9.6665 7.33203Z" stroke="#676B83" stroke-width="1.5" stroke-linecap="round" stroke-linejoin="round"/>
</svg>
