<svg width="16" height="16" viewBox="0 0 16 16" fill="none" xmlns="http://www.w3.org/2000/svg">
<path opacity="0.4" d="M8.00024 11.5679C8.60039 11.5679 9.08691 11.0813 9.08691 10.4812C9.08691 9.88105 8.60039 9.39453 8.00024 9.39453C7.40009 9.39453 6.91357 9.88105 6.91357 10.4812C6.91357 11.0813 7.40009 11.5679 8.00024 11.5679Z" fill="#676B83"/>
<path d="M11.1002 6.29297H4.90016C2.16683 6.29297 1.3335 7.1263 1.3335 9.85964V11.0996C1.3335 13.833 2.16683 14.6663 4.90016 14.6663H11.1002C13.8335 14.6663 14.6668 13.833 14.6668 11.0996V9.85964C14.6668 7.1263 13.8335 6.29297 11.1002 6.29297ZM8.00016 12.493C6.88683 12.493 5.98683 11.5863 5.98683 10.4796C5.98683 9.37297 6.88683 8.4663 8.00016 8.4663C9.1135 8.4663 10.0135 9.37297 10.0135 10.4796C10.0135 11.5863 9.1135 12.493 8.00016 12.493Z" fill="#676B83"/>
<path opacity="0.4" d="M4.74681 6.2987V5.5187C4.74681 3.56536 5.30014 2.26536 8.00014 2.26536C10.7001 2.26536 11.2535 3.56536 11.2535 5.5187V6.2987C11.5935 6.30536 11.9001 6.3187 12.1868 6.3587V5.5187C12.1868 3.7187 11.7535 1.33203 8.00014 1.33203C4.24681 1.33203 3.81348 3.7187 3.81348 5.5187V6.35203C4.09348 6.3187 4.40681 6.2987 4.74681 6.2987Z" fill="#676B83"/>
</svg>
