<svg width="138" height="24" viewBox="0 0 138 24" fill="none" xmlns="http://www.w3.org/2000/svg">
<path d="M16.971 19.2907L18.0069 20.3295L15.988 22.3485C14.9309 23.405 13.4975 23.9985 12.0029 23.9985C10.5084 23.9985 9.07497 23.405 8.01789 22.3485L1.65006 15.9894C0.59352 14.9323 0 13.499 0 12.0044C0 10.5098 0.59352 9.07646 1.65006 8.01937L3.66899 6.00044L5.3299 7.65548C5.62639 7.94446 5.97931 8.16919 6.36657 8.31561C6.75384 8.46204 7.16714 8.52702 7.58065 8.50649C7.95204 8.50417 8.32148 8.56063 8.67523 8.67375C9.91358 9.04057 11.4366 10.0031 12.8334 11.3999C14.2302 12.7967 15.181 14.3197 15.5595 15.5581C15.6562 15.8674 15.7125 16.188 15.7268 16.5118C15.7703 17.5633 16.2157 18.558 16.971 19.2907ZM9.84609 6.18238C11.1813 6.09728 13.2882 7.19477 15.1663 9.07284C16.927 10.8335 17.9893 12.7703 18.0597 14.1114C18.0977 15.1671 18.5264 16.1711 19.2629 16.9285L20.3369 17.9996L22.3499 15.9894C23.4065 14.9323 24 13.499 24 12.0044C24 10.5098 23.4065 9.07646 22.3499 8.01937L15.9821 1.65152C14.925 0.594985 13.4916 0.00146484 11.9971 0.00146484C10.5025 0.00146484 9.06912 0.594985 8.01203 1.65152L5.99897 3.66458L7.65401 5.31964C7.93756 5.61034 8.27957 5.83755 8.65744 5.98627C9.03532 6.13499 9.44046 6.20184 9.84609 6.18238Z" fill="#FF783B"/>
<path d="M19.2618 16.9294C18.5254 16.172 18.0967 15.168 18.0587 14.1123C17.9883 12.7712 16.9172 10.8227 15.1653 9.07379C13.2872 7.19572 11.1803 6.09822 9.84507 6.18332C9.43814 6.20053 9.03221 6.13093 8.65425 5.97914C8.2763 5.82735 7.93498 5.59686 7.65299 5.30298L5.99795 3.66553L3.66797 5.99551L5.32888 7.65643C5.62537 7.94541 5.97829 8.17014 6.36555 8.31656C6.75282 8.46299 7.16612 8.52796 7.57963 8.50744C7.95102 8.50512 8.32046 8.56157 8.67421 8.6747C9.91256 9.04151 11.4356 10.004 12.8324 11.4008C14.2292 12.7977 15.18 14.3207 15.5585 15.559C15.6552 15.8684 15.7114 16.1889 15.7258 16.5127C15.7677 17.5634 16.2109 18.558 16.9641 19.2917L18 20.3305L20.33 18.0005L19.2618 16.9294Z" fill="#FF783B"/>
<path d="M15.7327 16.5099C15.7183 16.1861 15.6621 15.8655 15.5654 15.5562C15.1986 14.3178 14.2361 12.7948 12.8393 11.398C11.4425 10.0012 9.90477 9.05042 8.68108 8.67187C8.32733 8.55875 7.95792 8.50229 7.58652 8.50461C7.17301 8.52514 6.7597 8.46016 6.37243 8.31373C5.98516 8.16731 5.63227 7.94258 5.33578 7.6536L3.66899 5.98975L1.65006 8.00868C0.59352 9.06576 0 10.4992 0 11.9937C0 13.4883 0.59352 14.9217 1.65006 15.9787L8.01789 22.3466C9.07497 23.4031 10.5084 23.9966 12.0029 23.9966C13.4975 23.9966 14.9309 23.4031 15.988 22.3466L18.0069 20.3277L16.971 19.2889C16.2178 18.5551 15.7746 17.5606 15.7327 16.5099Z" fill="white"/>
<path d="M39.7273 19H35.2912V5.90909H39.8168C41.1165 5.90909 42.233 6.17116 43.1662 6.69531C44.1037 7.2152 44.8239 7.96307 45.3267 8.93892C45.8295 9.91477 46.081 11.0824 46.081 12.4418C46.081 13.8054 45.8274 14.9773 45.3203 15.9574C44.8175 16.9375 44.0909 17.6896 43.1406 18.2138C42.1946 18.7379 41.0568 19 39.7273 19ZM37.6626 16.9482H39.6122C40.5241 16.9482 41.2848 16.782 41.8942 16.4496C42.5036 16.1129 42.9616 15.6122 43.2685 14.9474C43.5753 14.2784 43.7287 13.4432 43.7287 12.4418C43.7287 11.4403 43.5753 10.6094 43.2685 9.94886C42.9616 9.28409 42.5078 8.78764 41.907 8.45952C41.3104 8.12713 40.5689 7.96094 39.6825 7.96094H37.6626V16.9482ZM52.5785 19.1918C51.5941 19.1918 50.744 18.9872 50.0281 18.5781C49.3164 18.1648 48.7688 17.581 48.3853 16.8267C48.0018 16.0682 47.81 15.1754 47.81 14.1484C47.81 13.1385 48.0018 12.2521 48.3853 11.4893C48.7731 10.7223 49.3143 10.1257 50.0089 9.69957C50.7035 9.26918 51.5195 9.05398 52.457 9.05398C53.0621 9.05398 53.6332 9.15199 54.1701 9.34801C54.7113 9.53977 55.1886 9.83807 55.6019 10.2429C56.0195 10.6477 56.3477 11.1634 56.5863 11.7898C56.8249 12.4119 56.9442 13.1534 56.9442 14.0142V14.7237H48.8967V13.1641H54.7262C54.7219 12.7209 54.6261 12.3267 54.4386 11.9815C54.2511 11.6321 53.989 11.3572 53.6523 11.157C53.32 10.9567 52.9322 10.8565 52.489 10.8565C52.016 10.8565 51.6005 10.9716 51.2425 11.2017C50.8846 11.4276 50.6055 11.7259 50.4052 12.0966C50.2092 12.4631 50.109 12.8658 50.1048 13.3047V14.6662C50.1048 15.2372 50.2092 15.7273 50.418 16.1364C50.6268 16.5412 50.9187 16.8523 51.2937 17.0696C51.6687 17.2827 52.1076 17.3892 52.6104 17.3892C52.9471 17.3892 53.2518 17.3423 53.5245 17.2486C53.7972 17.1506 54.0337 17.0078 54.234 16.8203C54.4343 16.6328 54.5856 16.4006 54.6879 16.1236L56.8484 16.3665C56.712 16.9375 56.4521 17.4361 56.0685 17.8622C55.6893 18.2841 55.2035 18.6122 54.6112 18.8466C54.0188 19.0767 53.3413 19.1918 52.5785 19.1918ZM58.9018 19V9.18182H61.1135V10.8501H61.2285C61.4331 10.2876 61.7718 9.84872 62.2449 9.53338C62.7179 9.21378 63.2825 9.05398 63.9387 9.05398C64.6035 9.05398 65.1639 9.21591 65.6199 9.53977C66.0801 9.85937 66.4039 10.2962 66.5914 10.8501H66.6937C66.911 10.3047 67.2775 9.87003 67.7931 9.54616C68.313 9.21804 68.9288 9.05398 69.6404 9.05398C70.5439 9.05398 71.2811 9.33949 71.8521 9.91051C72.4231 10.4815 72.7086 11.3146 72.7086 12.4098V19H70.3883V12.7678C70.3883 12.1584 70.2264 11.7131 69.9025 11.4318C69.5787 11.1463 69.1824 11.0036 68.7136 11.0036C68.1554 11.0036 67.7186 11.1783 67.4032 11.5277C67.0922 11.8729 66.9366 12.3224 66.9366 12.8764V19H64.6674V12.6719C64.6674 12.1648 64.514 11.7599 64.2072 11.4574C63.9047 11.1548 63.5083 11.0036 63.0183 11.0036C62.6859 11.0036 62.3833 11.0888 62.1106 11.2592C61.8379 11.4254 61.6206 11.6619 61.4586 11.9688C61.2967 12.2713 61.2157 12.625 61.2157 13.0298V19H58.9018ZM75.0561 19V9.18182H77.37V19H75.0561ZM76.2195 7.78835C75.853 7.78835 75.5376 7.6669 75.2734 7.42401C75.0092 7.17685 74.8771 6.88068 74.8771 6.53551C74.8771 6.18608 75.0092 5.88991 75.2734 5.64702C75.5376 5.39986 75.853 5.27628 76.2195 5.27628C76.5902 5.27628 76.9055 5.39986 77.1655 5.64702C77.4297 5.88991 77.5618 6.18608 77.5618 6.53551C77.5618 6.88068 77.4297 7.17685 77.1655 7.42401C76.9055 7.6669 76.5902 7.78835 76.2195 7.78835ZM79.7495 19V9.18182H81.9931V10.8182H82.0953C82.2743 10.2514 82.5811 9.81463 83.0158 9.50781C83.4547 9.19673 83.9554 9.04119 84.5179 9.04119C84.6458 9.04119 84.7885 9.04758 84.9462 9.06037C85.1081 9.06889 85.2424 9.08381 85.3489 9.10511V11.2337C85.2509 11.1996 85.0953 11.1697 84.8823 11.1442C84.6735 11.1143 84.4711 11.0994 84.275 11.0994C83.8532 11.0994 83.4739 11.1911 83.1373 11.3743C82.8049 11.5533 82.5428 11.8026 82.351 12.1222C82.1593 12.4418 82.0634 12.8104 82.0634 13.228V19H79.7495ZM86.8862 22.6818V9.18182H89.1618V10.8054H89.296C89.4153 10.5668 89.5836 10.3132 89.801 10.0447C90.0183 9.77202 90.3123 9.53977 90.6831 9.34801C91.0538 9.15199 91.5268 9.05398 92.1021 9.05398C92.8606 9.05398 93.5446 9.24787 94.1539 9.63565C94.7676 10.0192 95.2534 10.5881 95.6113 11.3423C95.9735 12.0923 96.1547 13.0128 96.1547 14.1037C96.1547 15.1818 95.9778 16.098 95.6241 16.8523C95.2704 17.6065 94.7889 18.1818 94.1795 18.5781C93.5701 18.9744 92.8798 19.1726 92.1085 19.1726C91.546 19.1726 91.0794 19.0788 90.7086 18.8913C90.3379 18.7038 90.0396 18.478 89.8137 18.2138C89.5922 17.9453 89.4196 17.6918 89.296 17.4531H89.2001V22.6818H86.8862ZM89.1554 14.0909C89.1554 14.7259 89.2449 15.282 89.4238 15.7592C89.6071 16.2365 89.8691 16.6094 90.2101 16.8778C90.5552 17.142 90.9728 17.2741 91.4629 17.2741C91.9743 17.2741 92.4025 17.1378 92.7477 16.8651C93.0929 16.5881 93.3528 16.2109 93.5275 15.7337C93.7065 15.2521 93.796 14.7045 93.796 14.0909C93.796 13.4815 93.7086 12.9403 93.5339 12.4673C93.3592 11.9943 93.0993 11.6236 92.7541 11.3551C92.4089 11.0866 91.9785 10.9524 91.4629 10.9524C90.9686 10.9524 90.5488 11.0824 90.2037 11.3423C89.8585 11.6023 89.5964 11.9666 89.4174 12.4354C89.2427 12.9041 89.1554 13.456 89.1554 14.0909ZM102.419 19.1918C101.46 19.1918 100.629 18.9808 99.926 18.5589C99.2228 18.1371 98.6774 17.5469 98.2896 16.7884C97.9061 16.0298 97.7143 15.1435 97.7143 14.1293C97.7143 13.1151 97.9061 12.2266 98.2896 11.4638C98.6774 10.701 99.2228 10.1087 99.926 9.68679C100.629 9.26491 101.46 9.05398 102.419 9.05398C103.378 9.05398 104.209 9.26491 104.912 9.68679C105.615 10.1087 106.158 10.701 106.542 11.4638C106.93 12.2266 107.123 13.1151 107.123 14.1293C107.123 15.1435 106.93 16.0298 106.542 16.7884C106.158 17.5469 105.615 18.1371 104.912 18.5589C104.209 18.9808 103.378 19.1918 102.419 19.1918ZM102.432 17.3381C102.952 17.3381 103.386 17.1953 103.736 16.9098C104.085 16.62 104.345 16.2322 104.515 15.7464C104.69 15.2607 104.778 14.7195 104.778 14.1229C104.778 13.522 104.69 12.9787 104.515 12.4929C104.345 12.0028 104.085 11.6129 103.736 11.3232C103.386 11.0334 102.952 10.8885 102.432 10.8885C101.899 10.8885 101.456 11.0334 101.102 11.3232C100.753 11.6129 100.491 12.0028 100.316 12.4929C100.145 12.9787 100.06 13.522 100.06 14.1229C100.06 14.7195 100.145 15.2607 100.316 15.7464C100.491 16.2322 100.753 16.62 101.102 16.9098C101.456 17.1953 101.899 17.3381 102.432 17.3381ZM109.087 19V9.18182H111.331V10.8182H111.433C111.612 10.2514 111.919 9.81463 112.354 9.50781C112.793 9.19673 113.293 9.04119 113.856 9.04119C113.984 9.04119 114.126 9.04758 114.284 9.06037C114.446 9.06889 114.58 9.08381 114.687 9.10511V11.2337C114.589 11.1996 114.433 11.1697 114.22 11.1442C114.011 11.1143 113.809 11.0994 113.613 11.0994C113.191 11.0994 112.812 11.1911 112.475 11.3743C112.143 11.5533 111.881 11.8026 111.689 12.1222C111.497 12.4418 111.401 12.8104 111.401 13.228V19H109.087ZM121.654 9.18182V10.9716H116.01V9.18182H121.654ZM117.403 6.82955H119.717V16.0469C119.717 16.358 119.764 16.5966 119.858 16.7628C119.956 16.9247 120.084 17.0355 120.241 17.0952C120.399 17.1548 120.574 17.1847 120.766 17.1847C120.911 17.1847 121.043 17.174 121.162 17.1527C121.286 17.1314 121.379 17.1122 121.443 17.0952L121.833 18.9041C121.71 18.9467 121.533 18.9936 121.303 19.0447C121.077 19.0959 120.8 19.1257 120.472 19.1342C119.892 19.1513 119.37 19.0639 118.906 18.8722C118.441 18.6761 118.072 18.3736 117.8 17.9645C117.531 17.5554 117.399 17.044 117.403 16.4304V6.82955ZM126.415 19.1982C125.792 19.1982 125.232 19.0874 124.733 18.8658C124.239 18.6399 123.847 18.3075 123.557 17.8686C123.272 17.4297 123.129 16.8885 123.129 16.245C123.129 15.6911 123.231 15.233 123.436 14.8707C123.64 14.5085 123.92 14.2188 124.273 14.0014C124.627 13.7841 125.025 13.62 125.469 13.5092C125.916 13.3942 126.378 13.3111 126.856 13.2599C127.431 13.2003 127.898 13.147 128.256 13.1001C128.613 13.049 128.873 12.9723 129.035 12.87C129.202 12.7635 129.285 12.5994 129.285 12.3778V12.3395C129.285 11.858 129.142 11.4851 128.856 11.2209C128.571 10.9567 128.16 10.8246 127.623 10.8246C127.056 10.8246 126.606 10.9482 126.274 11.1953C125.946 11.4425 125.724 11.7344 125.609 12.071L123.449 11.7642C123.619 11.1676 123.9 10.669 124.292 10.2685C124.684 9.86364 125.164 9.56108 125.731 9.3608C126.297 9.15625 126.924 9.05398 127.61 9.05398C128.083 9.05398 128.554 9.10938 129.023 9.22017C129.491 9.33097 129.92 9.5142 130.307 9.76989C130.695 10.0213 131.006 10.3643 131.241 10.799C131.479 11.2337 131.599 11.777 131.599 12.429V19H129.374V17.6513H129.297C129.157 17.924 128.959 18.1797 128.703 18.4183C128.452 18.6527 128.134 18.8423 127.751 18.9872C127.371 19.1278 126.926 19.1982 126.415 19.1982ZM127.015 17.4979C127.48 17.4979 127.883 17.4062 128.224 17.223C128.564 17.0355 128.827 16.7884 129.01 16.4815C129.197 16.1747 129.291 15.8402 129.291 15.478V14.321C129.219 14.3807 129.095 14.4361 128.92 14.4872C128.75 14.5384 128.558 14.5831 128.345 14.6214C128.132 14.6598 127.921 14.6939 127.712 14.7237C127.503 14.7536 127.322 14.7791 127.169 14.8004C126.824 14.8473 126.515 14.924 126.242 15.0305C125.969 15.1371 125.754 15.2862 125.596 15.478C125.439 15.6655 125.36 15.9084 125.36 16.2067C125.36 16.6328 125.515 16.9545 125.827 17.1719C126.138 17.3892 126.534 17.4979 127.015 17.4979ZM136.239 5.90909V19H133.925V5.90909H136.239Z" fill="white"/>
</svg>
