<svg width="44" height="45" viewBox="0 0 44 45" fill="none" xmlns="http://www.w3.org/2000/svg">
<circle cx="22" cy="22.5" r="22" fill="#E9F6FF"/>
<path d="M13.01 21.7207V26.2107C13.01 30.7007 14.81 32.5007 19.3 32.5007H24.69C29.18 32.5007 30.98 30.7007 30.98 26.2107V21.7207" stroke="#219FFF" stroke-width="1.5" stroke-linecap="round" stroke-linejoin="round"/>
<path d="M22 22.5C23.83 22.5 25.18 21.01 25 19.18L24.34 12.5H19.67L19 19.18C18.82 21.01 20.17 22.5 22 22.5Z" stroke="#219FFF" stroke-width="1.5" stroke-linecap="round" stroke-linejoin="round"/>
<path d="M28.31 22.5C30.33 22.5 31.81 20.86 31.61 18.85L31.33 16.1C30.97 13.5 29.97 12.5 27.35 12.5H24.3L25 19.51C25.17 21.16 26.66 22.5 28.31 22.5Z" stroke="#219FFF" stroke-width="1.5" stroke-linecap="round" stroke-linejoin="round"/>
<path d="M15.6399 22.5C17.2899 22.5 18.7799 21.16 18.9399 19.51L19.1599 17.3L19.6399 12.5H16.5899C13.9699 12.5 12.9699 13.5 12.6099 16.1L12.3399 18.85C12.1399 20.86 13.6199 22.5 15.6399 22.5Z" stroke="#219FFF" stroke-width="1.5" stroke-linecap="round" stroke-linejoin="round"/>
<path d="M22 27.5C20.33 27.5 19.5 28.33 19.5 30V32.5H24.5V30C24.5 28.33 23.67 27.5 22 27.5Z" stroke="#219FFF" stroke-width="1.5" stroke-linecap="round" stroke-linejoin="round"/>
</svg>
