<svg width="22" height="22" viewBox="0 0 22 22" fill="none" xmlns="http://www.w3.org/2000/svg">
<path opacity="0.4" d="M15.5833 7.10286C15.4091 7.10286 15.235 7.0387 15.0975 6.9012C14.8316 6.63536 14.8316 6.19537 15.0975 5.92953L16.9766 4.05036C15.3633 2.67536 13.2825 1.83203 11 1.83203C5.93998 1.83203 1.83331 5.9387 1.83331 10.9987C1.83331 16.0587 5.93998 20.1654 11 20.1654C16.06 20.1654 20.1666 16.0587 20.1666 10.9987C20.1666 8.7162 19.3233 6.63537 17.9483 5.02203L16.0691 6.9012C15.9316 7.0387 15.7575 7.10286 15.5833 7.10286Z" fill="#989FC8"/>
<path d="M12.6041 10.835L11.6875 10.5142V8.47917H11.7608C12.2283 8.47917 12.6041 8.89167 12.6041 9.39583C12.6041 9.77167 12.9158 10.0833 13.2916 10.0833C13.6675 10.0833 13.9791 9.77167 13.9791 9.39583C13.9791 8.13083 12.9891 7.10417 11.7608 7.10417H11.6875V6.875C11.6875 6.49917 11.3758 6.1875 11 6.1875C10.6241 6.1875 10.3125 6.49917 10.3125 6.875V7.10417H10.0375C8.92832 7.10417 8.02081 8.03917 8.02081 9.19417C8.02081 10.5325 8.79998 10.9633 9.39581 11.1742L10.3125 11.495V13.53H10.2392C9.77166 13.53 9.39581 13.1175 9.39581 12.6133C9.39581 12.2375 9.08415 11.9258 8.70831 11.9258C8.33248 11.9258 8.02081 12.2375 8.02081 12.6133C8.02081 13.8783 9.01083 14.905 10.2392 14.905H10.3125V15.1342C10.3125 15.51 10.6241 15.8217 11 15.8217C11.3758 15.8217 11.6875 15.51 11.6875 15.1342V14.905H11.9625C13.0716 14.905 13.9791 13.97 13.9791 12.815C13.9791 11.4675 13.2 11.0367 12.6041 10.835ZM9.84497 9.86334C9.5333 9.75334 9.39581 9.68916 9.39581 9.185C9.39581 8.79083 9.68916 8.47 10.0375 8.47H10.3125V10.0192L9.84497 9.86334ZM11.9625 13.5208H11.6875V11.9717L12.155 12.1367C12.4667 12.2467 12.6041 12.3108 12.6041 12.815C12.6041 13.2 12.3108 13.5208 11.9625 13.5208Z" fill="#989FC8"/>
<path d="M20.7992 1.56755C20.7259 1.40255 20.5975 1.26506 20.4234 1.19172C20.3409 1.15506 20.2492 1.13672 20.1575 1.13672H16.4908C16.115 1.13672 15.8033 1.44839 15.8033 1.82422C15.8033 2.20005 16.115 2.51172 16.4908 2.51172H18.4983L16.9675 4.04256C17.3159 4.34506 17.6367 4.66589 17.9392 5.01422L19.47 3.48339V5.50005C19.47 5.87589 19.7817 6.18755 20.1575 6.18755C20.5333 6.18755 20.845 5.87589 20.845 5.50005V1.83339C20.8542 1.74172 20.8359 1.65922 20.7992 1.56755Z" fill="#989FC8"/>
</svg>
