<svg width="80" height="80" viewBox="0 0 80 80" fill="none" xmlns="http://www.w3.org/2000/svg">
<circle cx="40" cy="40" r="40" fill="#FFEDEC"/>
<path opacity="0.4" d="M24.0342 21.793V44.7355C24.0342 46.6138 24.9158 48.3963 26.43 49.5271L36.4158 57.0021C38.5433 58.593 41.4758 58.593 43.6033 57.0021L53.5891 49.5271C55.1033 48.3963 55.985 46.6138 55.985 44.7355V21.793H24.0342Z" fill="#FF4E3E"/>
<path d="M59.1668 23.2305H20.8335C20.0477 23.2305 19.396 22.5788 19.396 21.793C19.396 21.0071 20.0477 20.3555 20.8335 20.3555H59.1668C59.9527 20.3555 60.6043 21.0071 60.6043 21.793C60.6043 22.5788 59.9527 23.2305 59.1668 23.2305Z" fill="#FF4E3E"/>
<path d="M47.6668 33.7695H32.3335C31.5477 33.7695 30.896 33.1179 30.896 32.332C30.896 31.5462 31.5477 30.8945 32.3335 30.8945H47.6668C48.4527 30.8945 49.1043 31.5462 49.1043 32.332C49.1043 33.1179 48.4527 33.7695 47.6668 33.7695Z" fill="#FF4E3E"/>
<path d="M47.6668 43.3555H32.3335C31.5477 43.3555 30.896 42.7038 30.896 41.918C30.896 41.1321 31.5477 40.4805 32.3335 40.4805H47.6668C48.4527 40.4805 49.1043 41.1321 49.1043 41.918C49.1043 42.7038 48.4527 43.3555 47.6668 43.3555Z" fill="#FF4E3E"/>
</svg>
