<svg width="24" height="25" viewBox="0 0 24 25" fill="none" xmlns="http://www.w3.org/2000/svg">
<path d="M7.25 7.32031H16.75V5.32031C16.75 3.32031 16 2.32031 13.75 2.32031H10.25C8 2.32031 7.25 3.32031 7.25 5.32031V7.32031Z" stroke="#292D32" stroke-width="1.5" stroke-miterlimit="10" stroke-linecap="round" stroke-linejoin="round"/>
<path d="M16 15.3203V19.3203C16 21.3203 15 22.3203 13 22.3203H11C9 22.3203 8 21.3203 8 19.3203V15.3203H16Z" stroke="#292D32" stroke-width="1.5" stroke-miterlimit="10" stroke-linecap="round" stroke-linejoin="round"/>
<path d="M21 10.3203V15.3203C21 17.3203 20 18.3203 18 18.3203H16V15.3203H8V18.3203H6C4 18.3203 3 17.3203 3 15.3203V10.3203C3 8.32031 4 7.32031 6 7.32031H18C20 7.32031 21 8.32031 21 10.3203Z" stroke="#292D32" stroke-width="1.5" stroke-miterlimit="10" stroke-linecap="round" stroke-linejoin="round"/>
<path d="M17 15.3203H15.79H7" stroke="#292D32" stroke-width="1.5" stroke-miterlimit="10" stroke-linecap="round" stroke-linejoin="round"/>
<path d="M7 11.3203H10" stroke="#292D32" stroke-width="1.5" stroke-miterlimit="10" stroke-linecap="round" stroke-linejoin="round"/>
</svg>
