<svg width="22" height="22" viewBox="0 0 22 22" fill="none" xmlns="http://www.w3.org/2000/svg">
<path opacity="0.4" d="M8.24998 1.83337C5.84831 1.83337 3.89581 3.78587 3.89581 6.18754C3.89581 8.54337 5.73831 10.45 8.13998 10.5325C8.21331 10.5234 8.28665 10.5234 8.34165 10.5325C8.35998 10.5325 8.36915 10.5325 8.38748 10.5325C8.39665 10.5325 8.39665 10.5325 8.40581 10.5325C10.7525 10.45 12.595 8.54337 12.6041 6.18754C12.6041 3.78587 10.6516 1.83337 8.24998 1.83337Z" fill="white"/>
<path d="M12.9067 12.9709C10.3492 11.2659 6.17836 11.2659 3.60253 12.9709C2.43836 13.7501 1.79669 14.8042 1.79669 15.9317C1.79669 17.0592 2.43836 18.1042 3.59336 18.8742C4.87669 19.7359 6.56336 20.1667 8.25002 20.1667C9.93669 20.1667 11.6234 19.7359 12.9067 18.8742C14.0617 18.0951 14.7034 17.0501 14.7034 15.9134C14.6942 14.7859 14.0617 13.7409 12.9067 12.9709Z" fill="white"/>
<path opacity="0.4" d="M18.3241 6.72834C18.4708 8.50668 17.2058 10.065 15.455 10.2758C15.4458 10.2758 15.4458 10.2758 15.4366 10.2758H15.4091C15.3541 10.2758 15.2991 10.2758 15.2533 10.2942C14.3641 10.34 13.5483 10.0558 12.9341 9.53334C13.8783 8.69001 14.4191 7.42501 14.3091 6.05001C14.245 5.30751 13.9883 4.62918 13.6033 4.05168C13.9516 3.87751 14.355 3.76751 14.7675 3.73084C16.5641 3.57501 18.1683 4.91334 18.3241 6.72834Z" fill="white"/>
<path d="M20.1575 15.2075C20.0842 16.0967 19.5158 16.8667 18.5625 17.3892C17.6458 17.8934 16.4908 18.1317 15.345 18.1042C16.005 17.5084 16.39 16.7659 16.4633 15.9775C16.555 14.8409 16.0142 13.75 14.9325 12.8792C14.3183 12.3934 13.6033 12.0084 12.8242 11.7242C14.85 11.1375 17.3983 11.5317 18.9658 12.7967C19.8092 13.475 20.24 14.3275 20.1575 15.2075Z" fill="white"/>
</svg>
