<svg width="80" height="80" viewBox="0 0 80 80" fill="none" xmlns="http://www.w3.org/2000/svg">
<circle cx="40" cy="40" r="40" fill="#FFF3EE"/>
<path d="M58.5345 30.3223C57.3078 26.1631 53.8386 22.694 49.6795 21.4673C46.517 20.5473 44.332 20.624 42.8178 21.7548C40.997 23.1157 40.7861 25.569 40.7861 27.3132V32.0856C40.7861 36.8006 42.9328 39.1965 47.1495 39.1965H52.6503C54.3753 39.1965 56.8478 38.9857 58.2086 37.1648C59.3778 35.6698 59.4736 33.4848 58.5345 30.3223Z" fill="#FF783B"/>
<path opacity="0.4" d="M52.8665 42.9337L52.8664 42.9337L52.8721 42.94C53.2721 43.3862 53.4585 43.9881 53.3809 44.5935L53.3809 44.5937C52.8236 48.9589 50.4258 52.9764 46.817 55.5993L46.8158 55.6002C44.0465 57.626 40.796 58.6662 37.4318 58.6662C36.4082 58.6662 35.387 58.5732 34.3674 58.3693L34.3674 58.3692L34.3619 58.3682C27.9515 57.1604 22.8391 52.0476 21.6315 45.6567L21.6315 45.6567C20.7941 41.2279 21.7613 36.8069 24.4002 33.1831L24.4005 33.1827C27.0233 29.5739 31.0408 27.1761 35.406 26.6189L35.4079 26.6186C35.9938 26.5415 36.6141 26.7282 37.0597 27.1277L37.0597 27.1277L37.066 27.1332C37.5302 27.5355 37.7943 28.1254 37.7943 28.7296V35.5912C37.7943 39.2407 40.759 42.2054 44.4085 42.2054H51.2702C51.8743 42.2054 52.4642 42.4695 52.8665 42.9337Z" fill="#FF783B" stroke="#FF783B"/>
</svg>
