<svg width="80" height="80" viewBox="0 0 80 80" fill="none" xmlns="http://www.w3.org/2000/svg">
<circle cx="40" cy="40" r="40" fill="#E9FBF6"/>
<path opacity="0.4" d="M48.031 24.668H31.9693C24.9927 24.668 20.8335 28.8271 20.8335 35.8038V48.013C20.8335 55.0088 24.9927 59.168 31.9693 59.168H48.0118C54.9885 59.168 59.1477 55.0088 59.1477 48.0321V35.8038C59.1668 28.8271 55.0077 24.668 48.031 24.668Z" fill="#17BD8D"/>
<path d="M47.2121 43.3888L47.2132 43.3867C47.9724 41.8683 49.4675 40.9414 51.1552 40.9414H57.8252C58.2919 40.9414 58.6668 41.3262 58.6668 41.7831V49.1426C58.4223 52.2353 57.3289 54.5992 55.5529 56.1933C53.7714 57.7924 51.2468 58.6672 48.0502 58.6672H31.9885C28.5995 58.6672 25.9496 57.659 24.1476 55.8638C22.3459 54.0688 21.3335 51.4289 21.3335 48.0506V41.8022C21.3335 41.3309 21.7038 40.9606 22.1752 40.9606H28.8835C30.5504 40.9606 32.0666 41.9053 32.8265 43.4079L32.8271 43.4091L34.4354 46.5683C34.4357 46.5689 34.436 46.5695 34.4363 46.57C34.7593 47.2152 35.1853 47.6099 35.6462 47.8342C36.0979 48.0539 36.5438 48.0906 36.876 48.0906H43.1627C44.199 48.0906 45.1364 47.5012 45.6028 46.5692C45.6029 46.5689 45.6031 46.5686 45.6032 46.5683L47.2121 43.3888Z" fill="#17BD8D" stroke="#17BD8D"/>
<path d="M44.8491 29.3995C44.2933 28.8437 43.3733 28.8437 42.8174 29.3995L41.4374 30.7795V20.832C41.4374 20.0462 40.7858 19.3945 39.9999 19.3945C39.2141 19.3945 38.5624 20.0462 38.5624 20.832V30.7795L37.1824 29.3995C36.6266 28.8437 35.7066 28.8437 35.1508 29.3995C34.5949 29.9554 34.5949 30.8754 35.1508 31.4312L38.9841 35.2645C39.0033 35.2837 39.0224 35.2837 39.0224 35.3029C39.1374 35.4179 39.2908 35.5137 39.4441 35.5904C39.6358 35.6479 39.8083 35.6862 39.9999 35.6862C40.1916 35.6862 40.3641 35.6479 40.5366 35.5712C40.7091 35.4945 40.8624 35.3987 41.0158 35.2645L44.8491 31.4312C45.4049 30.8754 45.4049 29.9554 44.8491 29.3995Z" fill="#17BD8D"/>
</svg>
