<svg width="80" height="80" viewBox="0 0 80 80" fill="none" xmlns="http://www.w3.org/2000/svg">
<circle cx="40" cy="40" r="40" fill="#E9F6FF"/>
<path opacity="0.4" d="M49.2383 20.832H30.7616C26.6791 20.832 23.3633 24.167 23.3633 28.2304V55.2362C23.3633 58.6862 25.8358 60.1429 28.8641 58.4754L38.2174 53.2812C39.2141 52.7254 40.8241 52.7254 41.8016 53.2812L51.1549 58.4754C54.1833 60.162 56.6558 58.7054 56.6558 55.2362V28.2304C56.6366 24.167 53.3208 20.832 49.2383 20.832Z" fill="#219FFF"/>
<path d="M40.9377 35.9735V36.4735H41.4377H44.7918C45.3015 36.4735 45.7293 36.9014 45.7293 37.411C45.7293 37.9207 45.3015 38.3485 44.7918 38.3485H41.4377H40.9377V38.8485V42.3177C40.9377 42.8274 40.5099 43.2552 40.0002 43.2552C39.4905 43.2552 39.0627 42.8274 39.0627 42.3177V38.8485V38.3485H38.5627H35.2085C34.6988 38.3485 34.271 37.9207 34.271 37.411C34.271 36.9014 34.6988 36.4735 35.2085 36.4735H38.5627H39.0627V35.9735V32.7344C39.0627 32.2247 39.4905 31.7969 40.0002 31.7969C40.5099 31.7969 40.9377 32.2247 40.9377 32.7344V35.9735Z" fill="#219FFF" stroke="#219FFF"/>
</svg>
