<svg width="80" height="80" viewBox="0 0 80 80" fill="none" xmlns="http://www.w3.org/2000/svg">
<circle cx="40" cy="40" r="40" fill="#FFF7EB"/>
<path opacity="0.4" d="M53.9152 55.7695L53.9221 55.7547C54.5629 54.384 54.8333 52.408 54.8333 49.5073V30.494C54.8333 27.6146 54.5669 25.6464 53.9362 24.277C53.6021 23.8564 53.189 23.6532 52.7075 23.6532C51.9014 23.6532 50.799 24.199 49.5083 25.5832C47.724 27.4981 44.9428 27.3433 43.3764 25.2556L43.3765 25.2558L43.7758 24.9548L43.3758 25.2548L53.9152 55.7695ZM53.9152 55.7695C53.5911 56.1637 53.1885 56.3482 52.7075 56.3482C51.9013 56.3482 50.799 55.8023 49.5082 54.418M53.9152 55.7695L49.5082 54.418M49.5082 54.418C47.7239 52.5032 44.9427 52.6581 43.3763 54.7458C43.3761 54.746 43.376 54.7463 43.3758 54.7465L41.4407 57.3139L41.4383 57.3172C40.7519 58.2438 39.8769 58.6673 39.0417 58.6673C38.2064 58.6673 37.3314 58.2438 36.6451 57.3172L36.6422 57.3134L34.6889 54.728C34.6885 54.7276 34.6882 54.7271 34.6879 54.7267C33.1409 52.6583 30.3841 52.5059 28.6014 54.3913L28.5874 54.4053L28.5813 54.4114L28.5754 54.4177C27.524 55.5435 26.5867 56.1291 25.8368 56.3009C25.1461 56.4591 24.5953 56.2756 24.1671 55.7671L24.1613 55.7547C23.5204 54.384 23.25 52.408 23.25 49.5073V30.494C23.25 27.6145 23.5165 25.6463 24.1472 24.2768L49.5082 54.418ZM34.6889 25.2733L34.2884 24.974L34.6873 25.2754L34.6881 25.2744C34.6883 25.274 34.6886 25.2737 34.6889 25.2733ZM28.6014 25.61L28.6066 25.6152L28.96 25.2615L28.5961 25.6044C28.5979 25.6063 28.5997 25.6082 28.6014 25.61ZM53.875 24.0348V24.048C53.8743 24.0337 53.875 24.0281 53.875 24.0348Z" fill="#FFA114" stroke="#FFA114"/>
<path d="M47.6666 38.084H32.3333C31.5474 38.084 30.8958 37.4323 30.8958 36.6465C30.8958 35.8607 31.5474 35.209 32.3333 35.209H47.6666C48.4524 35.209 49.1041 35.8607 49.1041 36.6465C49.1041 37.4323 48.4524 38.084 47.6666 38.084Z" fill="#FFA114"/>
<path d="M43.8333 44.791H32.3333C31.5474 44.791 30.8958 44.1393 30.8958 43.3535C30.8958 42.5677 31.5474 41.916 32.3333 41.916H43.8333C44.6191 41.916 45.2708 42.5677 45.2708 43.3535C45.2708 44.1393 44.6191 44.791 43.8333 44.791Z" fill="#FFA114"/>
</svg>
