<svg width="22" height="22" viewBox="0 0 22 22" fill="none" xmlns="http://www.w3.org/2000/svg">
<path opacity="0.4" d="M18.3333 6.45203V15.5454C18.3333 16.9387 18.205 17.9287 17.875 18.6345C17.875 18.6437 17.8658 18.662 17.8566 18.6712C17.655 18.9279 17.3892 19.0562 17.0775 19.0562C16.5917 19.0562 16.005 18.7354 15.3725 18.057C14.6208 17.2504 13.4658 17.3145 12.8058 18.1945L11.88 19.4229C11.5134 19.9179 11.0275 20.1654 10.5417 20.1654C10.0558 20.1654 9.56998 19.9179 9.20331 19.4229L8.26835 18.1854C7.61752 17.3145 6.47166 17.2504 5.71999 18.0479L5.71082 18.057C4.67498 19.1662 3.75835 19.3312 3.22668 18.6712C3.21752 18.662 3.20833 18.6437 3.20833 18.6345C2.87833 17.9287 2.75 16.9387 2.75 15.5454V6.45203C2.75 5.0587 2.87833 4.0687 3.20833 3.36286C3.20833 3.3537 3.20835 3.34453 3.22668 3.33536C3.74918 2.6662 4.67498 2.8312 5.71082 3.94036L5.71999 3.94953C6.47166 4.74703 7.61752 4.68286 8.26835 3.81203L9.20331 2.57453C9.56998 2.07953 10.0558 1.83203 10.5417 1.83203C11.0275 1.83203 11.5134 2.07953 11.88 2.57453L12.8058 3.80286C13.4658 4.68286 14.6208 4.74703 15.3725 3.94036C16.005 3.26203 16.5917 2.9412 17.0775 2.9412C17.3892 2.9412 17.655 3.0787 17.8566 3.33536C17.875 3.34453 17.875 3.3537 17.875 3.36286C18.205 4.0687 18.3333 5.0587 18.3333 6.45203Z" fill="#989FC8"/>
<path d="M14.6666 10.082H7.33331C6.95748 10.082 6.64581 9.77036 6.64581 9.39453C6.64581 9.0187 6.95748 8.70703 7.33331 8.70703H14.6666C15.0425 8.70703 15.3541 9.0187 15.3541 9.39453C15.3541 9.77036 15.0425 10.082 14.6666 10.082Z" fill="#989FC8"/>
<path d="M12.8333 13.293H7.33331C6.95748 13.293 6.64581 12.9813 6.64581 12.6055C6.64581 12.2296 6.95748 11.918 7.33331 11.918H12.8333C13.2091 11.918 13.5208 12.2296 13.5208 12.6055C13.5208 12.9813 13.2091 13.293 12.8333 13.293Z" fill="#989FC8"/>
</svg>
