<svg width="46" height="46" viewBox="0 0 46 46" fill="none" xmlns="http://www.w3.org/2000/svg">
<circle cx="23" cy="23" r="23" fill="#FFF3EE"/>
<path d="M33.625 22.375V34.25C33.625 34.595 33.345 34.875 33 34.875H21.75V25.5C21.75 25.155 21.47 24.875 21.125 24.875H16.125C15.78 24.875 15.5 25.155 15.5 25.5V34.875H13C12.655 34.875 12.375 34.595 12.375 34.25V22.375H12.5875C13.5 22.375 14.3375 21.9281 14.8563 21.2187C14.8688 21.2312 14.8781 21.25 14.8875 21.2656C15.425 21.9687 16.2406 22.375 17.1281 22.375H17.9156C18.8625 22.375 19.7031 21.9062 20.2156 21.1812C20.2563 21.2312 20.2969 21.2844 20.3406 21.3344C20.9313 21.9969 21.7813 22.375 22.6688 22.375H23.3313C24.2188 22.375 25.0688 21.9969 25.6594 21.3344C25.7031 21.2844 25.7438 21.2312 25.7844 21.1812C26.2969 21.9062 27.1375 22.375 28.0844 22.375H28.8719C29.7594 22.375 30.575 21.9687 31.1125 21.2656C31.1219 21.25 31.1313 21.2312 31.1438 21.2187C31.6625 21.9281 32.5 22.375 33.4125 22.375H33.625ZM30.5 30.5V25.5C30.5 25.155 30.22 24.875 29.875 24.875H25.5C25.155 24.875 24.875 25.155 24.875 25.5V30.5C24.875 30.845 25.155 31.125 25.5 31.125H29.875C30.22 31.125 30.5 30.845 30.5 30.5ZM14.8435 11.125C14.3494 11.125 13.9019 11.4159 13.7013 11.8672L10.5625 18.9281C10.3363 19.4391 10.391 20 10.7125 20.4587C11.015 20.89 11.5278 21.125 12.0544 21.125H12.5875C13.2875 21.125 13.9063 20.6531 14.0938 19.9812L15.5406 14.7656L16.5531 11.125H14.8435ZM17.85 11.125L15.6219 19.1437C15.4906 19.6187 15.5875 20.1156 15.8844 20.5094C16.1813 20.9 16.6344 21.125 17.1281 21.125H17.9156C18.7156 21.125 19.3813 20.5281 19.4688 19.7344L20.4281 11.125H17.85ZM24.3156 11.125H21.6844L20.8031 19.0437C20.7469 19.5719 20.9156 20.1031 21.2719 20.5C21.6313 20.9031 22.1281 21.125 22.6688 21.125H23.3313C23.8719 21.125 24.3688 20.9031 24.7281 20.5C25.0844 20.1031 25.2531 19.5719 25.1969 19.0437L24.3156 11.125ZM28.15 11.125H25.5719L26.5313 19.7344C26.6188 20.5281 27.2844 21.125 28.0844 21.125H28.8719C29.3656 21.125 29.8188 20.9 30.1156 20.5094C30.4125 20.1156 30.5094 19.6187 30.3781 19.1437L28.15 11.125ZM32.2988 11.8672C32.0981 11.4159 31.6503 11.125 31.1566 11.125H29.4469L30.4594 14.7656L31.9063 19.9812C32.0938 20.6531 32.7125 21.125 33.4125 21.125H33.9456C34.4725 21.125 34.9853 20.89 35.2875 20.4587C35.6094 20 35.6638 19.4387 35.4375 18.9281L32.2988 11.8672Z" fill="#FF783B"/>
</svg>
